G04 EAGLE Gerber RS-274X export*
G75*
%MOMM*%
%FSLAX34Y34*%
%LPD*%
%INSolderpaste Top*%
%IPPOS*%
%AMOC8*
5,1,8,0,0,1.08239X$1,22.5*%
G01*
%ADD10R,0.800000X1.200000*%
%ADD11R,2.450000X2.350000*%
%ADD12R,1.200000X0.800000*%
%ADD13R,2.000000X1.200000*%
%ADD14R,1.120000X1.240000*%
%ADD15R,1.240000X1.120000*%
%ADD16R,1.800000X1.600000*%
%ADD17R,0.502359X0.747309*%
%ADD18R,0.503244X0.741319*%
%ADD19R,0.498631X0.739541*%
%ADD20R,0.498459X0.747569*%
%ADD21R,1.506350X1.497163*%
%ADD22R,1.507059X1.504097*%
%ADD23R,1.499884X1.498097*%
%ADD24R,1.499850X1.503144*%
%ADD25R,0.899241X0.459841*%
%ADD26R,0.894050X0.462331*%
%ADD27R,0.901266X0.453869*%
%ADD28R,0.402512X0.359219*%
%ADD29R,0.399150X0.357331*%
%ADD30R,0.392959X0.363959*%
%ADD31R,0.406531X0.359881*%
%ADD32R,0.402831X0.453559*%
%ADD33R,0.403469X0.755419*%
%ADD34R,0.401966X0.757719*%
%ADD35R,0.399353X0.754881*%
%ADD36R,0.397359X0.755100*%
%ADD37R,1.501391X1.500741*%
%ADD38R,0.502981X0.746500*%
%ADD39R,0.500953X0.747281*%
%ADD40R,0.499588X0.747281*%
%ADD41R,0.497369X0.745981*%
%ADD42R,1.499791X1.501778*%
%ADD43R,1.499831X1.498563*%
%ADD44R,1.501859X1.499013*%
%ADD45R,0.950000X1.450000*%
%ADD46R,1.732000X3.000000*%
%ADD47C,0.102500*%
%ADD48R,1.600000X1.800000*%
%ADD49R,1.200000X2.670000*%
%ADD50R,3.400000X0.980000*%
%ADD51R,1.524000X0.609600*%
%ADD52C,0.120000*%
%ADD53R,1.320800X0.406400*%
%ADD54R,1.397000X0.279400*%
%ADD55R,1.574800X0.558800*%

G36*
X226824Y429770D02*
X226824Y429770D01*
X226826Y429769D01*
X226869Y429789D01*
X226913Y429807D01*
X226913Y429809D01*
X226915Y429810D01*
X226948Y429895D01*
X226948Y451485D01*
X226948Y451486D01*
X226948Y451488D01*
X226948Y451489D01*
X226928Y451532D01*
X226910Y451576D01*
X226908Y451576D01*
X226907Y451578D01*
X226822Y451611D01*
X207518Y451611D01*
X207516Y451610D01*
X207514Y451611D01*
X207471Y451591D01*
X207427Y451573D01*
X207427Y451571D01*
X207425Y451570D01*
X207392Y451485D01*
X207392Y429895D01*
X207393Y429893D01*
X207392Y429891D01*
X207412Y429848D01*
X207430Y429804D01*
X207432Y429804D01*
X207433Y429802D01*
X207518Y429769D01*
X226822Y429769D01*
X226824Y429770D01*
G37*
G36*
X228094Y262130D02*
X228094Y262130D01*
X228096Y262129D01*
X228139Y262149D01*
X228183Y262167D01*
X228183Y262169D01*
X228185Y262170D01*
X228218Y262255D01*
X228218Y283845D01*
X228218Y283846D01*
X228218Y283848D01*
X228218Y283849D01*
X228198Y283892D01*
X228180Y283936D01*
X228178Y283936D01*
X228177Y283938D01*
X228092Y283971D01*
X208788Y283971D01*
X208786Y283970D01*
X208784Y283971D01*
X208741Y283951D01*
X208697Y283933D01*
X208697Y283931D01*
X208695Y283930D01*
X208662Y283845D01*
X208662Y262255D01*
X208663Y262253D01*
X208662Y262251D01*
X208682Y262208D01*
X208700Y262164D01*
X208702Y262164D01*
X208703Y262162D01*
X208788Y262129D01*
X228092Y262129D01*
X228094Y262130D01*
G37*
G36*
X228094Y103380D02*
X228094Y103380D01*
X228096Y103379D01*
X228139Y103399D01*
X228183Y103417D01*
X228183Y103419D01*
X228185Y103420D01*
X228218Y103505D01*
X228218Y125095D01*
X228218Y125096D01*
X228218Y125098D01*
X228218Y125099D01*
X228198Y125142D01*
X228180Y125186D01*
X228178Y125186D01*
X228177Y125188D01*
X228092Y125221D01*
X208788Y125221D01*
X208786Y125220D01*
X208784Y125221D01*
X208741Y125201D01*
X208697Y125183D01*
X208697Y125181D01*
X208695Y125180D01*
X208662Y125095D01*
X208662Y103505D01*
X208663Y103503D01*
X208662Y103501D01*
X208682Y103458D01*
X208700Y103414D01*
X208702Y103414D01*
X208703Y103412D01*
X208788Y103379D01*
X228092Y103379D01*
X228094Y103380D01*
G37*
D10*
X544720Y683260D03*
X562720Y683260D03*
X562720Y704850D03*
X544720Y704850D03*
D11*
X624840Y738620D03*
X624840Y800620D03*
X676910Y738620D03*
X676910Y800620D03*
D10*
X388730Y701040D03*
X370730Y701040D03*
D12*
X551180Y642510D03*
X551180Y660510D03*
X368300Y550020D03*
X368300Y532020D03*
D10*
X585580Y786130D03*
X567580Y786130D03*
D12*
X603250Y478680D03*
X603250Y496680D03*
X665480Y680830D03*
X665480Y662830D03*
D13*
X488950Y408430D03*
X488950Y376430D03*
X452120Y376430D03*
X452120Y408430D03*
D10*
X349140Y641350D03*
X367140Y641350D03*
X388730Y789940D03*
X370730Y789940D03*
X349360Y722630D03*
X331360Y722630D03*
D12*
X551180Y571390D03*
X551180Y589390D03*
X391160Y589390D03*
X391160Y571390D03*
D14*
X63500Y391500D03*
X63500Y421300D03*
X715010Y696890D03*
X715010Y667090D03*
X63500Y162900D03*
X63500Y192700D03*
X863600Y345100D03*
X863600Y315300D03*
X63500Y658200D03*
X63500Y688000D03*
X863600Y573700D03*
X863600Y543900D03*
X863600Y840400D03*
X863600Y810600D03*
X544830Y510880D03*
X544830Y540680D03*
D15*
X334350Y588010D03*
X364150Y588010D03*
D14*
X613410Y713400D03*
X613410Y683600D03*
D16*
X641350Y708690D03*
X641350Y680690D03*
X689610Y708690D03*
X689610Y680690D03*
D17*
X482038Y428237D03*
D18*
X494734Y428207D03*
D19*
X507457Y428198D03*
D20*
X520158Y428238D03*
D21*
X492568Y442286D03*
D22*
X492565Y459320D03*
D23*
X509601Y442291D03*
D24*
X509601Y459316D03*
D25*
X508254Y482199D03*
D26*
X519280Y482212D03*
D27*
X497244Y482169D03*
D28*
X494737Y488196D03*
D29*
X507454Y488187D03*
D30*
X520185Y488220D03*
D31*
X482017Y488199D03*
D32*
X482036Y482168D03*
D17*
X482038Y509517D03*
D18*
X494734Y509487D03*
D19*
X507457Y509478D03*
D20*
X520158Y509518D03*
D21*
X492568Y523566D03*
D22*
X492565Y540600D03*
D23*
X509601Y523571D03*
D24*
X509601Y540596D03*
D25*
X508254Y563479D03*
D26*
X519280Y563492D03*
D27*
X497244Y563449D03*
D28*
X494737Y569476D03*
D29*
X507454Y569467D03*
D30*
X520185Y569500D03*
D31*
X482017Y569479D03*
D32*
X482036Y563448D03*
D33*
X457217Y567557D03*
D34*
X444510Y567569D03*
D35*
X431797Y567554D03*
D36*
X419087Y567556D03*
D37*
X446657Y539484D03*
D38*
X457215Y509413D03*
D39*
X444505Y509416D03*
D40*
X431798Y509416D03*
D41*
X419087Y509410D03*
D42*
X429649Y539489D03*
D43*
X429649Y522473D03*
D44*
X446659Y522475D03*
D33*
X457217Y486277D03*
D34*
X444510Y486289D03*
D35*
X431797Y486274D03*
D36*
X419087Y486276D03*
D37*
X446657Y458204D03*
D38*
X457215Y428133D03*
D39*
X444505Y428136D03*
D40*
X431798Y428136D03*
D41*
X419087Y428130D03*
D42*
X429649Y458209D03*
D43*
X429649Y441193D03*
D44*
X446659Y441195D03*
D17*
X541728Y428237D03*
D18*
X554424Y428207D03*
D19*
X567147Y428198D03*
D20*
X579848Y428238D03*
D21*
X552258Y442286D03*
D22*
X552255Y459320D03*
D23*
X569291Y442291D03*
D24*
X569291Y459316D03*
D25*
X567944Y482199D03*
D26*
X578970Y482212D03*
D27*
X556934Y482169D03*
D28*
X554427Y488196D03*
D29*
X567144Y488187D03*
D30*
X579875Y488220D03*
D31*
X541707Y488199D03*
D32*
X541726Y482168D03*
D33*
X393717Y486277D03*
D34*
X381010Y486289D03*
D35*
X368297Y486274D03*
D36*
X355587Y486276D03*
D37*
X383157Y458204D03*
D38*
X393715Y428133D03*
D39*
X381005Y428136D03*
D40*
X368298Y428136D03*
D41*
X355587Y428130D03*
D42*
X366149Y458209D03*
D43*
X366149Y441193D03*
D44*
X383159Y441195D03*
D45*
X578010Y589280D03*
X598010Y589280D03*
D10*
X562720Y751840D03*
X544720Y751840D03*
D12*
X447040Y769510D03*
X447040Y787510D03*
D10*
X367140Y612140D03*
X349140Y612140D03*
D12*
X457200Y612250D03*
X457200Y594250D03*
X482600Y612250D03*
X482600Y594250D03*
D10*
X573930Y610870D03*
X591930Y610870D03*
X349360Y744220D03*
X331360Y744220D03*
D12*
X519430Y786020D03*
X519430Y804020D03*
D45*
X578010Y567690D03*
X598010Y567690D03*
D12*
X544830Y804020D03*
X544830Y786020D03*
X496570Y804020D03*
X496570Y786020D03*
X425450Y787510D03*
X425450Y769510D03*
D10*
X591930Y640080D03*
X573930Y640080D03*
X591930Y662940D03*
X573930Y662940D03*
D12*
X389890Y550020D03*
X389890Y532020D03*
X603250Y448420D03*
X603250Y430420D03*
D10*
X370730Y679450D03*
X388730Y679450D03*
X370730Y722630D03*
X388730Y722630D03*
X388730Y744220D03*
X370730Y744220D03*
X372000Y765810D03*
X390000Y765810D03*
X544720Y726440D03*
X562720Y726440D03*
D46*
X469900Y685800D03*
D47*
X491662Y645088D02*
X505438Y645088D01*
X505438Y642012D01*
X491662Y642012D01*
X491662Y645088D01*
X491662Y642986D02*
X505438Y642986D01*
X505438Y643960D02*
X491662Y643960D01*
X491662Y644934D02*
X505438Y644934D01*
X505438Y651588D02*
X491662Y651588D01*
X505438Y651588D02*
X505438Y648512D01*
X491662Y648512D01*
X491662Y651588D01*
X491662Y649486D02*
X505438Y649486D01*
X505438Y650460D02*
X491662Y650460D01*
X491662Y651434D02*
X505438Y651434D01*
X505438Y658088D02*
X491662Y658088D01*
X505438Y658088D02*
X505438Y655012D01*
X491662Y655012D01*
X491662Y658088D01*
X491662Y655986D02*
X505438Y655986D01*
X505438Y656960D02*
X491662Y656960D01*
X491662Y657934D02*
X505438Y657934D01*
X505438Y664588D02*
X491662Y664588D01*
X505438Y664588D02*
X505438Y661512D01*
X491662Y661512D01*
X491662Y664588D01*
X491662Y662486D02*
X505438Y662486D01*
X505438Y663460D02*
X491662Y663460D01*
X491662Y664434D02*
X505438Y664434D01*
X505438Y671088D02*
X491662Y671088D01*
X505438Y671088D02*
X505438Y668012D01*
X491662Y668012D01*
X491662Y671088D01*
X491662Y668986D02*
X505438Y668986D01*
X505438Y669960D02*
X491662Y669960D01*
X491662Y670934D02*
X505438Y670934D01*
X505438Y677588D02*
X491662Y677588D01*
X505438Y677588D02*
X505438Y674512D01*
X491662Y674512D01*
X491662Y677588D01*
X491662Y675486D02*
X505438Y675486D01*
X505438Y676460D02*
X491662Y676460D01*
X491662Y677434D02*
X505438Y677434D01*
X505438Y684088D02*
X491662Y684088D01*
X505438Y684088D02*
X505438Y681012D01*
X491662Y681012D01*
X491662Y684088D01*
X491662Y681986D02*
X505438Y681986D01*
X505438Y682960D02*
X491662Y682960D01*
X491662Y683934D02*
X505438Y683934D01*
X505438Y690588D02*
X491662Y690588D01*
X505438Y690588D02*
X505438Y687512D01*
X491662Y687512D01*
X491662Y690588D01*
X491662Y688486D02*
X505438Y688486D01*
X505438Y689460D02*
X491662Y689460D01*
X491662Y690434D02*
X505438Y690434D01*
X505438Y697088D02*
X491662Y697088D01*
X505438Y697088D02*
X505438Y694012D01*
X491662Y694012D01*
X491662Y697088D01*
X491662Y694986D02*
X505438Y694986D01*
X505438Y695960D02*
X491662Y695960D01*
X491662Y696934D02*
X505438Y696934D01*
X505438Y703588D02*
X491662Y703588D01*
X505438Y703588D02*
X505438Y700512D01*
X491662Y700512D01*
X491662Y703588D01*
X491662Y701486D02*
X505438Y701486D01*
X505438Y702460D02*
X491662Y702460D01*
X491662Y703434D02*
X505438Y703434D01*
X505438Y710088D02*
X491662Y710088D01*
X505438Y710088D02*
X505438Y707012D01*
X491662Y707012D01*
X491662Y710088D01*
X491662Y707986D02*
X505438Y707986D01*
X505438Y708960D02*
X491662Y708960D01*
X491662Y709934D02*
X505438Y709934D01*
X505438Y716588D02*
X491662Y716588D01*
X505438Y716588D02*
X505438Y713512D01*
X491662Y713512D01*
X491662Y716588D01*
X491662Y714486D02*
X505438Y714486D01*
X505438Y715460D02*
X491662Y715460D01*
X491662Y716434D02*
X505438Y716434D01*
X505438Y723088D02*
X491662Y723088D01*
X505438Y723088D02*
X505438Y720012D01*
X491662Y720012D01*
X491662Y723088D01*
X491662Y720986D02*
X505438Y720986D01*
X505438Y721960D02*
X491662Y721960D01*
X491662Y722934D02*
X505438Y722934D01*
X505438Y729588D02*
X491662Y729588D01*
X505438Y729588D02*
X505438Y726512D01*
X491662Y726512D01*
X491662Y729588D01*
X491662Y727486D02*
X505438Y727486D01*
X505438Y728460D02*
X491662Y728460D01*
X491662Y729434D02*
X505438Y729434D01*
X448138Y729588D02*
X434362Y729588D01*
X448138Y729588D02*
X448138Y726512D01*
X434362Y726512D01*
X434362Y729588D01*
X434362Y727486D02*
X448138Y727486D01*
X448138Y728460D02*
X434362Y728460D01*
X434362Y729434D02*
X448138Y729434D01*
X448138Y723088D02*
X434362Y723088D01*
X448138Y723088D02*
X448138Y720012D01*
X434362Y720012D01*
X434362Y723088D01*
X434362Y720986D02*
X448138Y720986D01*
X448138Y721960D02*
X434362Y721960D01*
X434362Y722934D02*
X448138Y722934D01*
X448138Y716588D02*
X434362Y716588D01*
X448138Y716588D02*
X448138Y713512D01*
X434362Y713512D01*
X434362Y716588D01*
X434362Y714486D02*
X448138Y714486D01*
X448138Y715460D02*
X434362Y715460D01*
X434362Y716434D02*
X448138Y716434D01*
X448138Y710088D02*
X434362Y710088D01*
X448138Y710088D02*
X448138Y707012D01*
X434362Y707012D01*
X434362Y710088D01*
X434362Y707986D02*
X448138Y707986D01*
X448138Y708960D02*
X434362Y708960D01*
X434362Y709934D02*
X448138Y709934D01*
X448138Y703588D02*
X434362Y703588D01*
X448138Y703588D02*
X448138Y700512D01*
X434362Y700512D01*
X434362Y703588D01*
X434362Y701486D02*
X448138Y701486D01*
X448138Y702460D02*
X434362Y702460D01*
X434362Y703434D02*
X448138Y703434D01*
X448138Y697088D02*
X434362Y697088D01*
X448138Y697088D02*
X448138Y694012D01*
X434362Y694012D01*
X434362Y697088D01*
X434362Y694986D02*
X448138Y694986D01*
X448138Y695960D02*
X434362Y695960D01*
X434362Y696934D02*
X448138Y696934D01*
X448138Y690588D02*
X434362Y690588D01*
X448138Y690588D02*
X448138Y687512D01*
X434362Y687512D01*
X434362Y690588D01*
X434362Y688486D02*
X448138Y688486D01*
X448138Y689460D02*
X434362Y689460D01*
X434362Y690434D02*
X448138Y690434D01*
X448138Y684088D02*
X434362Y684088D01*
X448138Y684088D02*
X448138Y681012D01*
X434362Y681012D01*
X434362Y684088D01*
X434362Y681986D02*
X448138Y681986D01*
X448138Y682960D02*
X434362Y682960D01*
X434362Y683934D02*
X448138Y683934D01*
X448138Y677588D02*
X434362Y677588D01*
X448138Y677588D02*
X448138Y674512D01*
X434362Y674512D01*
X434362Y677588D01*
X434362Y675486D02*
X448138Y675486D01*
X448138Y676460D02*
X434362Y676460D01*
X434362Y677434D02*
X448138Y677434D01*
X448138Y671088D02*
X434362Y671088D01*
X448138Y671088D02*
X448138Y668012D01*
X434362Y668012D01*
X434362Y671088D01*
X434362Y668986D02*
X448138Y668986D01*
X448138Y669960D02*
X434362Y669960D01*
X434362Y670934D02*
X448138Y670934D01*
X448138Y664588D02*
X434362Y664588D01*
X448138Y664588D02*
X448138Y661512D01*
X434362Y661512D01*
X434362Y664588D01*
X434362Y662486D02*
X448138Y662486D01*
X448138Y663460D02*
X434362Y663460D01*
X434362Y664434D02*
X448138Y664434D01*
X448138Y658088D02*
X434362Y658088D01*
X448138Y658088D02*
X448138Y655012D01*
X434362Y655012D01*
X434362Y658088D01*
X434362Y655986D02*
X448138Y655986D01*
X448138Y656960D02*
X434362Y656960D01*
X434362Y657934D02*
X448138Y657934D01*
X448138Y651588D02*
X434362Y651588D01*
X448138Y651588D02*
X448138Y648512D01*
X434362Y648512D01*
X434362Y651588D01*
X434362Y649486D02*
X448138Y649486D01*
X448138Y650460D02*
X434362Y650460D01*
X434362Y651434D02*
X448138Y651434D01*
X448138Y645088D02*
X434362Y645088D01*
X448138Y645088D02*
X448138Y642012D01*
X434362Y642012D01*
X434362Y645088D01*
X434362Y642986D02*
X448138Y642986D01*
X448138Y643960D02*
X434362Y643960D01*
X434362Y644934D02*
X448138Y644934D01*
D12*
X50800Y123300D03*
X50800Y105300D03*
X850900Y123300D03*
X850900Y105300D03*
X825500Y841900D03*
X825500Y859900D03*
X88900Y841900D03*
X88900Y859900D03*
D48*
X320010Y767080D03*
X348010Y767080D03*
D10*
X401430Y400050D03*
X383430Y400050D03*
X401430Y370840D03*
X383430Y370840D03*
D12*
X150490Y750100D03*
X150490Y732100D03*
X129860Y750090D03*
X129860Y732090D03*
D16*
X104110Y756560D03*
X104110Y728560D03*
D48*
X144420Y794100D03*
X116420Y794100D03*
D10*
X129860Y769970D03*
X147860Y769970D03*
D49*
X168970Y790060D03*
X215670Y790060D03*
D11*
X278550Y730180D03*
X278550Y792180D03*
D16*
X238640Y764960D03*
X238640Y792960D03*
D10*
X157440Y419720D03*
X175440Y419720D03*
X259780Y418800D03*
X277780Y418800D03*
X175290Y441240D03*
X157290Y441240D03*
X259780Y440830D03*
X277780Y440830D03*
X226630Y411110D03*
X208630Y411110D03*
X278140Y396740D03*
X260140Y396740D03*
X226330Y389400D03*
X208330Y389400D03*
D50*
X164420Y491790D03*
X164420Y515490D03*
D13*
X210260Y515830D03*
X210260Y483830D03*
D10*
X175410Y397710D03*
X157410Y397710D03*
X156100Y251460D03*
X174100Y251460D03*
X261510Y251460D03*
X279510Y251460D03*
X174100Y273050D03*
X156100Y273050D03*
X261510Y273050D03*
X279510Y273050D03*
X227440Y243840D03*
X209440Y243840D03*
X279510Y229870D03*
X261510Y229870D03*
X227440Y222250D03*
X209440Y222250D03*
D50*
X162560Y324700D03*
X162560Y348400D03*
D13*
X209550Y347470D03*
X209550Y315470D03*
D10*
X174100Y229870D03*
X156100Y229870D03*
X156100Y92710D03*
X174100Y92710D03*
X262780Y92710D03*
X280780Y92710D03*
X174100Y114300D03*
X156100Y114300D03*
X262780Y114300D03*
X280780Y114300D03*
X227440Y85090D03*
X209440Y85090D03*
X280780Y71120D03*
X262780Y71120D03*
X227440Y63500D03*
X209440Y63500D03*
D50*
X162560Y165950D03*
X162560Y189650D03*
D13*
X209550Y189990D03*
X209550Y157990D03*
D10*
X174100Y71120D03*
X156100Y71120D03*
D51*
X498975Y259850D03*
X498975Y272550D03*
X498975Y247150D03*
X498975Y234450D03*
X444365Y259850D03*
X444365Y272550D03*
X444365Y247150D03*
X444365Y234450D03*
D12*
X472440Y297070D03*
X472440Y315070D03*
D10*
X500490Y208280D03*
X482490Y208280D03*
X443120Y208280D03*
X461120Y208280D03*
D52*
X450070Y354660D02*
X436570Y354660D01*
X436570Y358260D01*
X450070Y358260D01*
X450070Y354660D01*
X450070Y355800D02*
X436570Y355800D01*
X436570Y356940D02*
X450070Y356940D01*
X450070Y358080D02*
X436570Y358080D01*
X436570Y348160D02*
X450070Y348160D01*
X436570Y348160D02*
X436570Y351760D01*
X450070Y351760D01*
X450070Y348160D01*
X450070Y349300D02*
X436570Y349300D01*
X436570Y350440D02*
X450070Y350440D01*
X450070Y351580D02*
X436570Y351580D01*
X436570Y341660D02*
X450070Y341660D01*
X436570Y341660D02*
X436570Y345260D01*
X450070Y345260D01*
X450070Y341660D01*
X450070Y342800D02*
X436570Y342800D01*
X436570Y343940D02*
X450070Y343940D01*
X450070Y345080D02*
X436570Y345080D01*
X436570Y335160D02*
X450070Y335160D01*
X436570Y335160D02*
X436570Y338760D01*
X450070Y338760D01*
X450070Y335160D01*
X450070Y336300D02*
X436570Y336300D01*
X436570Y337440D02*
X450070Y337440D01*
X450070Y338580D02*
X436570Y338580D01*
X479570Y335160D02*
X493070Y335160D01*
X479570Y335160D02*
X479570Y338760D01*
X493070Y338760D01*
X493070Y335160D01*
X493070Y336300D02*
X479570Y336300D01*
X479570Y337440D02*
X493070Y337440D01*
X493070Y338580D02*
X479570Y338580D01*
X479570Y341660D02*
X493070Y341660D01*
X479570Y341660D02*
X479570Y345260D01*
X493070Y345260D01*
X493070Y341660D01*
X493070Y342800D02*
X479570Y342800D01*
X479570Y343940D02*
X493070Y343940D01*
X493070Y345080D02*
X479570Y345080D01*
X479570Y348160D02*
X493070Y348160D01*
X479570Y348160D02*
X479570Y351760D01*
X493070Y351760D01*
X493070Y348160D01*
X493070Y349300D02*
X479570Y349300D01*
X479570Y350440D02*
X493070Y350440D01*
X493070Y351580D02*
X479570Y351580D01*
X479570Y354660D02*
X493070Y354660D01*
X479570Y354660D02*
X479570Y358260D01*
X493070Y358260D01*
X493070Y354660D01*
X493070Y355800D02*
X479570Y355800D01*
X479570Y356940D02*
X493070Y356940D01*
X493070Y358080D02*
X479570Y358080D01*
D53*
X475742Y122780D03*
X475742Y116280D03*
X475742Y109780D03*
X475742Y103280D03*
X519938Y103280D03*
X519938Y109780D03*
X519938Y116280D03*
X519938Y122780D03*
D12*
X455930Y111870D03*
X455930Y93870D03*
D10*
X488840Y83820D03*
X506840Y83820D03*
D12*
X455930Y133240D03*
X455930Y151240D03*
X434340Y93870D03*
X434340Y111870D03*
D10*
X505570Y147320D03*
X487570Y147320D03*
D12*
X539750Y133240D03*
X539750Y151240D03*
D54*
X195326Y450698D03*
X195326Y445694D03*
X195326Y440690D03*
X195326Y435686D03*
X195326Y430682D03*
X239014Y430682D03*
X239014Y435686D03*
X239014Y440690D03*
X239014Y445694D03*
X239014Y450698D03*
X196596Y283058D03*
X196596Y278054D03*
X196596Y273050D03*
X196596Y268046D03*
X196596Y263042D03*
X240284Y263042D03*
X240284Y268046D03*
X240284Y273050D03*
X240284Y278054D03*
X240284Y283058D03*
X196596Y124308D03*
X196596Y119304D03*
X196596Y114300D03*
X196596Y109296D03*
X196596Y104292D03*
X240284Y104292D03*
X240284Y109296D03*
X240284Y114300D03*
X240284Y119304D03*
X240284Y124308D03*
D10*
X175370Y462280D03*
X157370Y462280D03*
X174100Y294640D03*
X156100Y294640D03*
X174100Y135890D03*
X156100Y135890D03*
D55*
X178816Y596240D03*
X178816Y586740D03*
X178816Y577240D03*
X202184Y577240D03*
X202184Y586740D03*
X202184Y596240D03*
D10*
X205630Y556260D03*
X223630Y556260D03*
X157370Y556260D03*
X175370Y556260D03*
D12*
X223520Y595740D03*
X223520Y577740D03*
X157480Y595740D03*
X157480Y577740D03*
M02*
