G04 EAGLE Gerber RS-274X export*
G75*
%MOMM*%
%FSLAX34Y34*%
%LPD*%
%INSolderpaste Bottom*%
%IPPOS*%
%AMOC8*
5,1,8,0,0,1.08239X$1,22.5*%
G01*
%ADD10R,1.800000X1.600000*%
%ADD11R,0.800000X1.200000*%
%ADD12R,2.000000X1.200000*%
%ADD13R,2.450000X2.350000*%
%ADD14R,1.200000X0.800000*%
%ADD15R,3.850000X4.000000*%
%ADD16R,2.500000X3.000000*%
%ADD17R,0.950000X1.450000*%
%ADD18R,2.540000X1.905000*%
%ADD19R,1.240000X1.120000*%
%ADD20R,1.524000X0.609600*%
%ADD21R,0.609600X1.524000*%


D10*
X755650Y751810D03*
X755650Y779810D03*
D11*
X718930Y726440D03*
X700930Y726440D03*
X740300Y726440D03*
X758300Y726440D03*
D10*
X154940Y764510D03*
X154940Y792510D03*
X182880Y764510D03*
X182880Y792510D03*
D12*
X212090Y763780D03*
X212090Y795780D03*
X243840Y763780D03*
X243840Y795780D03*
D13*
X608330Y729730D03*
X608330Y791730D03*
X662940Y729730D03*
X662940Y791730D03*
D10*
X389890Y732760D03*
X389890Y760760D03*
X419100Y732760D03*
X419100Y760760D03*
X449580Y732760D03*
X449580Y760760D03*
X480060Y732760D03*
X480060Y760760D03*
D11*
X325010Y685800D03*
X343010Y685800D03*
X631080Y662940D03*
X649080Y662940D03*
D14*
X363220Y728870D03*
X363220Y746870D03*
D13*
X285750Y729730D03*
X285750Y791730D03*
D10*
X703580Y751810D03*
X703580Y779810D03*
D15*
X431650Y631190D03*
X508150Y631190D03*
D16*
X511440Y730250D03*
X560440Y730250D03*
D14*
X303530Y685910D03*
X303530Y667910D03*
X364490Y667910D03*
X364490Y685910D03*
X648970Y684420D03*
X648970Y702420D03*
X589280Y684420D03*
X589280Y702420D03*
D17*
X628490Y702310D03*
X608490Y702310D03*
X324010Y641350D03*
X344010Y641350D03*
X324010Y664210D03*
X344010Y664210D03*
D18*
X542290Y426720D03*
X542290Y401320D03*
X542290Y375920D03*
X542290Y350520D03*
X542290Y325120D03*
X542290Y299720D03*
X542290Y274320D03*
X542290Y248920D03*
X542290Y223520D03*
X542290Y198120D03*
X542290Y172720D03*
X542290Y147320D03*
X542290Y121920D03*
X542290Y96520D03*
X542290Y71120D03*
X382270Y71120D03*
X382270Y96520D03*
X382270Y121920D03*
X382270Y147320D03*
X382270Y172720D03*
X382270Y198120D03*
X382270Y223520D03*
X382270Y248920D03*
X382270Y274320D03*
X382270Y299720D03*
X382270Y325120D03*
X382270Y350520D03*
X382270Y375920D03*
X382270Y401320D03*
X382270Y426720D03*
D19*
X358480Y797560D03*
X388280Y797560D03*
D20*
X155702Y680720D03*
X100838Y680720D03*
X155702Y668020D03*
X155702Y655320D03*
X100838Y668020D03*
X100838Y655320D03*
X155702Y642620D03*
X100838Y642620D03*
D14*
X127000Y698390D03*
X127000Y716390D03*
D20*
X154432Y515620D03*
X99568Y515620D03*
X154432Y502920D03*
X154432Y490220D03*
X99568Y502920D03*
X99568Y490220D03*
X154432Y477520D03*
X99568Y477520D03*
D14*
X125730Y532020D03*
X125730Y550020D03*
D21*
X135890Y361188D03*
X135890Y416052D03*
X123190Y361188D03*
X110490Y361188D03*
X123190Y416052D03*
X110490Y416052D03*
X97790Y361188D03*
X97790Y416052D03*
D11*
X152290Y389890D03*
X170290Y389890D03*
D21*
X135890Y199898D03*
X135890Y254762D03*
X123190Y199898D03*
X110490Y199898D03*
X123190Y254762D03*
X110490Y254762D03*
X97790Y199898D03*
X97790Y254762D03*
D11*
X152290Y228600D03*
X170290Y228600D03*
D20*
X304038Y534670D03*
X358902Y534670D03*
X304038Y547370D03*
X304038Y560070D03*
X358902Y547370D03*
X358902Y560070D03*
X304038Y572770D03*
X358902Y572770D03*
D14*
X325120Y518270D03*
X325120Y500270D03*
M02*
