G04 EAGLE Gerber RS-274X export*
G75*
%MOMM*%
%FSLAX34Y34*%
%LPD*%
%INSoldermask Top*%
%IPPOS*%
%AMOC8*
5,1,8,0,0,1.08239X$1,22.5*%
G01*
%ADD10R,1.054000X1.454000*%
%ADD11R,2.704000X2.604000*%
%ADD12R,1.454000X1.054000*%
%ADD13R,2.254000X1.454000*%
%ADD14R,1.374000X1.494000*%
%ADD15R,1.494000X1.374000*%
%ADD16R,2.054000X1.854000*%
%ADD17C,6.604000*%
%ADD18C,2.032000*%
%ADD19C,1.562000*%
%ADD20R,0.754000X1.104000*%
%ADD21R,4.664000X4.804000*%
%ADD22R,1.204000X1.704000*%
%ADD23C,0.358559*%
%ADD24R,2.994000X5.004000*%
%ADD25R,1.854000X2.054000*%
%ADD26R,1.454000X2.924000*%
%ADD27R,3.654000X1.234000*%
%ADD28R,1.778000X0.863600*%
%ADD29C,0.374338*%
%ADD30R,1.574800X0.660400*%
%ADD31R,1.651000X0.533400*%
%ADD32R,2.184400X2.413000*%
%ADD33P,1.907171X8X112.500000*%
%ADD34R,1.828800X0.812800*%
%ADD35C,1.016000*%

G36*
X485055Y505229D02*
X485055Y505229D01*
X485054Y505230D01*
X485055Y505230D01*
X485055Y513225D01*
X491745Y513225D01*
X491745Y505230D01*
X491749Y505225D01*
X491750Y505226D01*
X491750Y505225D01*
X497750Y505225D01*
X497755Y505229D01*
X497754Y505230D01*
X497755Y505230D01*
X497755Y513225D01*
X504445Y513225D01*
X504445Y505230D01*
X504449Y505225D01*
X504450Y505226D01*
X504450Y505225D01*
X510450Y505225D01*
X510455Y505229D01*
X510454Y505230D01*
X510455Y505230D01*
X510455Y513225D01*
X517145Y513225D01*
X517145Y505230D01*
X517149Y505225D01*
X517150Y505226D01*
X517150Y505225D01*
X523150Y505225D01*
X523155Y505229D01*
X523154Y505230D01*
X523155Y505230D01*
X523155Y550730D01*
X523151Y550735D01*
X523150Y550734D01*
X523150Y550735D01*
X479050Y550735D01*
X479045Y550731D01*
X479046Y550730D01*
X479045Y550730D01*
X479045Y505230D01*
X479049Y505225D01*
X479050Y505226D01*
X479050Y505225D01*
X485050Y505225D01*
X485055Y505229D01*
G37*
G36*
X544745Y423949D02*
X544745Y423949D01*
X544744Y423950D01*
X544745Y423950D01*
X544745Y431945D01*
X551435Y431945D01*
X551435Y423950D01*
X551439Y423945D01*
X551440Y423946D01*
X551440Y423945D01*
X557440Y423945D01*
X557445Y423949D01*
X557444Y423950D01*
X557445Y423950D01*
X557445Y431945D01*
X564135Y431945D01*
X564135Y423950D01*
X564139Y423945D01*
X564140Y423946D01*
X564140Y423945D01*
X570140Y423945D01*
X570145Y423949D01*
X570144Y423950D01*
X570145Y423950D01*
X570145Y431945D01*
X576835Y431945D01*
X576835Y423950D01*
X576839Y423945D01*
X576840Y423946D01*
X576840Y423945D01*
X582840Y423945D01*
X582845Y423949D01*
X582844Y423950D01*
X582845Y423950D01*
X582845Y469450D01*
X582841Y469455D01*
X582840Y469454D01*
X582840Y469455D01*
X538740Y469455D01*
X538735Y469451D01*
X538736Y469450D01*
X538735Y469450D01*
X538735Y423950D01*
X538739Y423945D01*
X538740Y423946D01*
X538740Y423945D01*
X544740Y423945D01*
X544745Y423949D01*
G37*
G36*
X485055Y423949D02*
X485055Y423949D01*
X485054Y423950D01*
X485055Y423950D01*
X485055Y431945D01*
X491745Y431945D01*
X491745Y423950D01*
X491749Y423945D01*
X491750Y423946D01*
X491750Y423945D01*
X497750Y423945D01*
X497755Y423949D01*
X497754Y423950D01*
X497755Y423950D01*
X497755Y431945D01*
X504445Y431945D01*
X504445Y423950D01*
X504449Y423945D01*
X504450Y423946D01*
X504450Y423945D01*
X510450Y423945D01*
X510455Y423949D01*
X510454Y423950D01*
X510455Y423950D01*
X510455Y431945D01*
X517145Y431945D01*
X517145Y423950D01*
X517149Y423945D01*
X517150Y423946D01*
X517150Y423945D01*
X523150Y423945D01*
X523155Y423949D01*
X523154Y423950D01*
X523155Y423950D01*
X523155Y469450D01*
X523151Y469455D01*
X523150Y469454D01*
X523150Y469455D01*
X479050Y469455D01*
X479045Y469451D01*
X479046Y469450D01*
X479045Y469450D01*
X479045Y423950D01*
X479049Y423945D01*
X479050Y423946D01*
X479050Y423945D01*
X485050Y423945D01*
X485055Y423949D01*
G37*
G36*
X524255Y560729D02*
X524255Y560729D01*
X524254Y560730D01*
X524255Y560730D01*
X524255Y566730D01*
X524251Y566735D01*
X524250Y566734D01*
X524250Y566735D01*
X522655Y566735D01*
X522655Y571730D01*
X522651Y571735D01*
X522650Y571734D01*
X522650Y571735D01*
X517650Y571735D01*
X517645Y571731D01*
X517646Y571730D01*
X517645Y571730D01*
X517645Y566735D01*
X509955Y566735D01*
X509955Y571730D01*
X509951Y571735D01*
X509950Y571734D01*
X509950Y571735D01*
X504950Y571735D01*
X504945Y571731D01*
X504946Y571730D01*
X504945Y571730D01*
X504945Y566735D01*
X497255Y566735D01*
X497255Y571730D01*
X497251Y571735D01*
X497250Y571734D01*
X497250Y571735D01*
X492250Y571735D01*
X492245Y571731D01*
X492246Y571730D01*
X492245Y571730D01*
X492245Y560730D01*
X492249Y560725D01*
X492250Y560726D01*
X492250Y560725D01*
X524250Y560725D01*
X524255Y560729D01*
G37*
G36*
X524255Y479449D02*
X524255Y479449D01*
X524254Y479450D01*
X524255Y479450D01*
X524255Y485450D01*
X524251Y485455D01*
X524250Y485454D01*
X524250Y485455D01*
X522655Y485455D01*
X522655Y490450D01*
X522651Y490455D01*
X522650Y490454D01*
X522650Y490455D01*
X517650Y490455D01*
X517645Y490451D01*
X517646Y490450D01*
X517645Y490450D01*
X517645Y485455D01*
X509955Y485455D01*
X509955Y490450D01*
X509951Y490455D01*
X509950Y490454D01*
X509950Y490455D01*
X504950Y490455D01*
X504945Y490451D01*
X504946Y490450D01*
X504945Y490450D01*
X504945Y485455D01*
X497255Y485455D01*
X497255Y490450D01*
X497251Y490455D01*
X497250Y490454D01*
X497250Y490455D01*
X492250Y490455D01*
X492245Y490451D01*
X492246Y490450D01*
X492245Y490450D01*
X492245Y479450D01*
X492249Y479445D01*
X492250Y479446D01*
X492250Y479445D01*
X524250Y479445D01*
X524255Y479449D01*
G37*
G36*
X583945Y479449D02*
X583945Y479449D01*
X583944Y479450D01*
X583945Y479450D01*
X583945Y485450D01*
X583941Y485455D01*
X583940Y485454D01*
X583940Y485455D01*
X582345Y485455D01*
X582345Y490450D01*
X582341Y490455D01*
X582340Y490454D01*
X582340Y490455D01*
X577340Y490455D01*
X577335Y490451D01*
X577336Y490450D01*
X577335Y490450D01*
X577335Y485455D01*
X569645Y485455D01*
X569645Y490450D01*
X569641Y490455D01*
X569640Y490454D01*
X569640Y490455D01*
X564640Y490455D01*
X564635Y490451D01*
X564636Y490450D01*
X564635Y490450D01*
X564635Y485455D01*
X556945Y485455D01*
X556945Y490450D01*
X556941Y490455D01*
X556940Y490454D01*
X556940Y490455D01*
X551940Y490455D01*
X551935Y490451D01*
X551936Y490450D01*
X551935Y490450D01*
X551935Y479450D01*
X551939Y479445D01*
X551940Y479446D01*
X551940Y479445D01*
X583940Y479445D01*
X583945Y479449D01*
G37*
G36*
X484555Y560729D02*
X484555Y560729D01*
X484554Y560730D01*
X484555Y560730D01*
X484555Y571730D01*
X484551Y571735D01*
X484550Y571734D01*
X484550Y571735D01*
X479550Y571735D01*
X479545Y571731D01*
X479546Y571730D01*
X479545Y571730D01*
X479545Y560730D01*
X479549Y560725D01*
X479550Y560726D01*
X479550Y560725D01*
X484550Y560725D01*
X484555Y560729D01*
G37*
G36*
X484555Y479449D02*
X484555Y479449D01*
X484554Y479450D01*
X484555Y479450D01*
X484555Y490450D01*
X484551Y490455D01*
X484550Y490454D01*
X484550Y490455D01*
X479550Y490455D01*
X479545Y490451D01*
X479546Y490450D01*
X479545Y490450D01*
X479545Y479450D01*
X479549Y479445D01*
X479550Y479446D01*
X479550Y479445D01*
X484550Y479445D01*
X484555Y479449D01*
G37*
G36*
X544245Y479449D02*
X544245Y479449D01*
X544244Y479450D01*
X544245Y479450D01*
X544245Y490450D01*
X544241Y490455D01*
X544240Y490454D01*
X544240Y490455D01*
X539240Y490455D01*
X539235Y490451D01*
X539236Y490450D01*
X539235Y490450D01*
X539235Y479450D01*
X539239Y479445D01*
X539240Y479446D01*
X539240Y479445D01*
X544240Y479445D01*
X544245Y479449D01*
G37*
D10*
X544720Y683260D03*
X562720Y683260D03*
X562720Y704850D03*
X544720Y704850D03*
D11*
X624840Y738620D03*
X624840Y800620D03*
X676910Y738620D03*
X676910Y800620D03*
D10*
X388730Y701040D03*
X370730Y701040D03*
D12*
X551180Y642510D03*
X551180Y660510D03*
X368300Y550020D03*
X368300Y532020D03*
D10*
X585580Y786130D03*
X567580Y786130D03*
D12*
X603250Y478680D03*
X603250Y496680D03*
X665480Y680830D03*
X665480Y662830D03*
D13*
X488950Y408430D03*
X488950Y376430D03*
X452120Y376430D03*
X452120Y408430D03*
D10*
X349140Y641350D03*
X367140Y641350D03*
X388730Y789940D03*
X370730Y789940D03*
X349360Y722630D03*
X331360Y722630D03*
D12*
X551180Y571390D03*
X551180Y589390D03*
X391160Y589390D03*
X391160Y571390D03*
D14*
X63500Y391500D03*
X63500Y421300D03*
X715010Y696890D03*
X715010Y667090D03*
X63500Y162900D03*
X63500Y192700D03*
X863600Y345100D03*
X863600Y315300D03*
X63500Y658200D03*
X63500Y688000D03*
X863600Y573700D03*
X863600Y543900D03*
X863600Y840400D03*
X863600Y810600D03*
X544830Y510880D03*
X544830Y540680D03*
D15*
X334350Y588010D03*
X364150Y588010D03*
D14*
X613410Y713400D03*
X613410Y683600D03*
D16*
X641350Y708690D03*
X641350Y680690D03*
X689610Y708690D03*
X689610Y680690D03*
D17*
X50800Y50800D03*
X850900Y50800D03*
X825500Y908050D03*
X88900Y908050D03*
D18*
X774700Y908050D03*
X774700Y882650D03*
X139700Y908050D03*
X139700Y882650D03*
X749300Y908050D03*
X749300Y882650D03*
X723900Y908050D03*
X723900Y882650D03*
X698500Y908050D03*
X698500Y882650D03*
X673100Y908050D03*
X673100Y882650D03*
X647700Y908050D03*
X647700Y882650D03*
X622300Y908050D03*
X622300Y882650D03*
X596900Y908050D03*
X596900Y882650D03*
X571500Y908050D03*
X571500Y882650D03*
X546100Y908050D03*
X546100Y882650D03*
X520700Y908050D03*
X520700Y882650D03*
X495300Y908050D03*
X495300Y882650D03*
X469900Y908050D03*
X469900Y882650D03*
X444500Y908050D03*
X444500Y882650D03*
X419100Y908050D03*
X419100Y882650D03*
X393700Y908050D03*
X393700Y882650D03*
X368300Y908050D03*
X368300Y882650D03*
X342900Y908050D03*
X342900Y882650D03*
X317500Y908050D03*
X317500Y882650D03*
X292100Y908050D03*
X292100Y882650D03*
X266700Y908050D03*
X266700Y882650D03*
X241300Y908050D03*
X241300Y882650D03*
X215900Y908050D03*
X215900Y882650D03*
X190500Y908050D03*
X190500Y882650D03*
X165100Y908050D03*
X165100Y882650D03*
X774700Y857250D03*
X774700Y832231D03*
X139700Y857250D03*
X139700Y831850D03*
X749300Y857250D03*
X749300Y832231D03*
X723900Y857250D03*
X723900Y832231D03*
X698500Y857250D03*
X698500Y832231D03*
X673100Y857250D03*
X673100Y832231D03*
X647700Y857250D03*
X647700Y832231D03*
X622300Y857250D03*
X622300Y832231D03*
X596900Y857250D03*
X596900Y832231D03*
X571500Y857250D03*
X571500Y832231D03*
X546100Y857250D03*
X546100Y832231D03*
X520700Y857250D03*
X520700Y832231D03*
X495300Y857250D03*
X495300Y832231D03*
X469900Y857250D03*
X469900Y832231D03*
X444500Y857250D03*
X444500Y832231D03*
X419100Y857250D03*
X419100Y832231D03*
X393700Y857250D03*
X393700Y832231D03*
X368300Y857250D03*
X368300Y832231D03*
X342900Y857250D03*
X342900Y832231D03*
X317500Y857250D03*
X317500Y832231D03*
X292100Y857250D03*
X292100Y832231D03*
X266700Y857250D03*
X266700Y832231D03*
X241300Y857250D03*
X241300Y832231D03*
X215900Y857250D03*
X215900Y832231D03*
X190500Y857250D03*
X190500Y832231D03*
X165100Y857250D03*
X165100Y832231D03*
D19*
X50800Y723900D03*
X50800Y743966D03*
X50800Y457200D03*
X50800Y477266D03*
X50800Y228600D03*
X50800Y248666D03*
X876300Y279400D03*
X876300Y259334D03*
X876300Y508000D03*
X876300Y487934D03*
X876300Y774700D03*
X876300Y754634D03*
D20*
X457200Y567480D03*
X444500Y567480D03*
X431800Y567480D03*
X419100Y567480D03*
D21*
X438150Y527980D03*
D20*
X457200Y486200D03*
X444500Y486200D03*
X431800Y486200D03*
X419100Y486200D03*
D21*
X438150Y446700D03*
D20*
X393700Y486200D03*
X381000Y486200D03*
X368300Y486200D03*
X355600Y486200D03*
D21*
X374650Y446700D03*
D22*
X578010Y589280D03*
X598010Y589280D03*
D10*
X562720Y751840D03*
X544720Y751840D03*
D12*
X447040Y769510D03*
X447040Y787510D03*
D10*
X367140Y612140D03*
X349140Y612140D03*
D12*
X457200Y612250D03*
X457200Y594250D03*
X482600Y612250D03*
X482600Y594250D03*
D10*
X573930Y610870D03*
X591930Y610870D03*
X349360Y744220D03*
X331360Y744220D03*
D12*
X519430Y786020D03*
X519430Y804020D03*
D22*
X578010Y567690D03*
X598010Y567690D03*
D12*
X544830Y804020D03*
X544830Y786020D03*
X496570Y804020D03*
X496570Y786020D03*
X425450Y787510D03*
X425450Y769510D03*
D10*
X591930Y640080D03*
X573930Y640080D03*
X591930Y662940D03*
X573930Y662940D03*
D12*
X389890Y550020D03*
X389890Y532020D03*
X603250Y448420D03*
X603250Y430420D03*
D10*
X370730Y679450D03*
X388730Y679450D03*
X370730Y722630D03*
X388730Y722630D03*
X388730Y744220D03*
X370730Y744220D03*
X372000Y765810D03*
X390000Y765810D03*
X544720Y726440D03*
X562720Y726440D03*
D23*
X505427Y645077D02*
X491673Y645077D01*
X505427Y645077D02*
X505427Y642023D01*
X491673Y642023D01*
X491673Y645077D01*
X491673Y651577D02*
X505427Y651577D01*
X505427Y648523D01*
X491673Y648523D01*
X491673Y651577D01*
X491673Y658077D02*
X505427Y658077D01*
X505427Y655023D01*
X491673Y655023D01*
X491673Y658077D01*
X491673Y664577D02*
X505427Y664577D01*
X505427Y661523D01*
X491673Y661523D01*
X491673Y664577D01*
X491673Y671077D02*
X505427Y671077D01*
X505427Y668023D01*
X491673Y668023D01*
X491673Y671077D01*
X491673Y677577D02*
X505427Y677577D01*
X505427Y674523D01*
X491673Y674523D01*
X491673Y677577D01*
X491673Y684077D02*
X505427Y684077D01*
X505427Y681023D01*
X491673Y681023D01*
X491673Y684077D01*
X491673Y690577D02*
X505427Y690577D01*
X505427Y687523D01*
X491673Y687523D01*
X491673Y690577D01*
X491673Y697077D02*
X505427Y697077D01*
X505427Y694023D01*
X491673Y694023D01*
X491673Y697077D01*
X491673Y703577D02*
X505427Y703577D01*
X505427Y700523D01*
X491673Y700523D01*
X491673Y703577D01*
X491673Y710077D02*
X505427Y710077D01*
X505427Y707023D01*
X491673Y707023D01*
X491673Y710077D01*
X491673Y716577D02*
X505427Y716577D01*
X505427Y713523D01*
X491673Y713523D01*
X491673Y716577D01*
X491673Y723077D02*
X505427Y723077D01*
X505427Y720023D01*
X491673Y720023D01*
X491673Y723077D01*
X491673Y729577D02*
X505427Y729577D01*
X505427Y726523D01*
X491673Y726523D01*
X491673Y729577D01*
X448127Y729577D02*
X434373Y729577D01*
X448127Y729577D02*
X448127Y726523D01*
X434373Y726523D01*
X434373Y729577D01*
X434373Y723077D02*
X448127Y723077D01*
X448127Y720023D01*
X434373Y720023D01*
X434373Y723077D01*
X434373Y716577D02*
X448127Y716577D01*
X448127Y713523D01*
X434373Y713523D01*
X434373Y716577D01*
X434373Y710077D02*
X448127Y710077D01*
X448127Y707023D01*
X434373Y707023D01*
X434373Y710077D01*
X434373Y703577D02*
X448127Y703577D01*
X448127Y700523D01*
X434373Y700523D01*
X434373Y703577D01*
X434373Y697077D02*
X448127Y697077D01*
X448127Y694023D01*
X434373Y694023D01*
X434373Y697077D01*
X434373Y690577D02*
X448127Y690577D01*
X448127Y687523D01*
X434373Y687523D01*
X434373Y690577D01*
X434373Y684077D02*
X448127Y684077D01*
X448127Y681023D01*
X434373Y681023D01*
X434373Y684077D01*
X434373Y677577D02*
X448127Y677577D01*
X448127Y674523D01*
X434373Y674523D01*
X434373Y677577D01*
X434373Y671077D02*
X448127Y671077D01*
X448127Y668023D01*
X434373Y668023D01*
X434373Y671077D01*
X434373Y664577D02*
X448127Y664577D01*
X448127Y661523D01*
X434373Y661523D01*
X434373Y664577D01*
X434373Y658077D02*
X448127Y658077D01*
X448127Y655023D01*
X434373Y655023D01*
X434373Y658077D01*
X434373Y651577D02*
X448127Y651577D01*
X448127Y648523D01*
X434373Y648523D01*
X434373Y651577D01*
X434373Y645077D02*
X448127Y645077D01*
X448127Y642023D01*
X434373Y642023D01*
X434373Y645077D01*
D24*
X469900Y685800D03*
D12*
X50800Y123300D03*
X50800Y105300D03*
X850900Y123300D03*
X850900Y105300D03*
X825500Y841900D03*
X825500Y859900D03*
X88900Y841900D03*
X88900Y859900D03*
D25*
X320010Y767080D03*
X348010Y767080D03*
D10*
X401430Y400050D03*
X383430Y400050D03*
X401430Y370840D03*
X383430Y370840D03*
D12*
X150490Y750100D03*
X150490Y732100D03*
X129860Y750090D03*
X129860Y732090D03*
D16*
X104110Y756560D03*
X104110Y728560D03*
D25*
X144420Y794100D03*
X116420Y794100D03*
D10*
X129860Y769970D03*
X147860Y769970D03*
D26*
X168970Y790060D03*
X215670Y790060D03*
D11*
X278550Y730180D03*
X278550Y792180D03*
D16*
X238640Y764960D03*
X238640Y792960D03*
D10*
X157440Y419720D03*
X175440Y419720D03*
X259780Y418800D03*
X277780Y418800D03*
X175290Y441240D03*
X157290Y441240D03*
X259780Y440830D03*
X277780Y440830D03*
X226630Y411110D03*
X208630Y411110D03*
X278140Y396740D03*
X260140Y396740D03*
X226330Y389400D03*
X208330Y389400D03*
D27*
X164420Y491790D03*
X164420Y515490D03*
D13*
X210260Y515830D03*
X210260Y483830D03*
D10*
X175410Y397710D03*
X157410Y397710D03*
X156100Y251460D03*
X174100Y251460D03*
X261510Y251460D03*
X279510Y251460D03*
X174100Y273050D03*
X156100Y273050D03*
X261510Y273050D03*
X279510Y273050D03*
X227440Y243840D03*
X209440Y243840D03*
X279510Y229870D03*
X261510Y229870D03*
X227440Y222250D03*
X209440Y222250D03*
D27*
X162560Y324700D03*
X162560Y348400D03*
D13*
X209550Y347470D03*
X209550Y315470D03*
D10*
X174100Y229870D03*
X156100Y229870D03*
X156100Y92710D03*
X174100Y92710D03*
X262780Y92710D03*
X280780Y92710D03*
X174100Y114300D03*
X156100Y114300D03*
X262780Y114300D03*
X280780Y114300D03*
X227440Y85090D03*
X209440Y85090D03*
X280780Y71120D03*
X262780Y71120D03*
X227440Y63500D03*
X209440Y63500D03*
D27*
X162560Y165950D03*
X162560Y189650D03*
D13*
X209550Y189990D03*
X209550Y157990D03*
D10*
X174100Y71120D03*
X156100Y71120D03*
D28*
X498975Y259850D03*
X498975Y272550D03*
X498975Y247150D03*
X498975Y234450D03*
X444365Y259850D03*
X444365Y272550D03*
X444365Y247150D03*
X444365Y234450D03*
D12*
X472440Y297070D03*
X472440Y315070D03*
D10*
X500490Y208280D03*
X482490Y208280D03*
X443120Y208280D03*
X461120Y208280D03*
D29*
X450069Y354661D02*
X436571Y354661D01*
X436571Y358259D01*
X450069Y358259D01*
X450069Y354661D01*
X450069Y358217D02*
X436571Y358217D01*
X436571Y348161D02*
X450069Y348161D01*
X436571Y348161D02*
X436571Y351759D01*
X450069Y351759D01*
X450069Y348161D01*
X450069Y351717D02*
X436571Y351717D01*
X436571Y341661D02*
X450069Y341661D01*
X436571Y341661D02*
X436571Y345259D01*
X450069Y345259D01*
X450069Y341661D01*
X450069Y345217D02*
X436571Y345217D01*
X436571Y335161D02*
X450069Y335161D01*
X436571Y335161D02*
X436571Y338759D01*
X450069Y338759D01*
X450069Y335161D01*
X450069Y338717D02*
X436571Y338717D01*
X479571Y335161D02*
X493069Y335161D01*
X479571Y335161D02*
X479571Y338759D01*
X493069Y338759D01*
X493069Y335161D01*
X493069Y338717D02*
X479571Y338717D01*
X479571Y341661D02*
X493069Y341661D01*
X479571Y341661D02*
X479571Y345259D01*
X493069Y345259D01*
X493069Y341661D01*
X493069Y345217D02*
X479571Y345217D01*
X479571Y348161D02*
X493069Y348161D01*
X479571Y348161D02*
X479571Y351759D01*
X493069Y351759D01*
X493069Y348161D01*
X493069Y351717D02*
X479571Y351717D01*
X479571Y354661D02*
X493069Y354661D01*
X479571Y354661D02*
X479571Y358259D01*
X493069Y358259D01*
X493069Y354661D01*
X493069Y358217D02*
X479571Y358217D01*
D30*
X475742Y122780D03*
X475742Y116280D03*
X475742Y109780D03*
X475742Y103280D03*
X519938Y103280D03*
X519938Y109780D03*
X519938Y116280D03*
X519938Y122780D03*
D12*
X455930Y111870D03*
X455930Y93870D03*
D10*
X488840Y83820D03*
X506840Y83820D03*
D12*
X455930Y133240D03*
X455930Y151240D03*
X434340Y93870D03*
X434340Y111870D03*
D10*
X505570Y147320D03*
X487570Y147320D03*
D12*
X539750Y133240D03*
X539750Y151240D03*
D31*
X195326Y450698D03*
X195326Y445694D03*
X195326Y440690D03*
X195326Y435686D03*
X195326Y430682D03*
X239014Y430682D03*
X239014Y435686D03*
X239014Y440690D03*
X239014Y445694D03*
X239014Y450698D03*
D32*
X217170Y440690D03*
D31*
X196596Y283058D03*
X196596Y278054D03*
X196596Y273050D03*
X196596Y268046D03*
X196596Y263042D03*
X240284Y263042D03*
X240284Y268046D03*
X240284Y273050D03*
X240284Y278054D03*
X240284Y283058D03*
D32*
X218440Y273050D03*
D31*
X196596Y124308D03*
X196596Y119304D03*
X196596Y114300D03*
X196596Y109296D03*
X196596Y104292D03*
X240284Y104292D03*
X240284Y109296D03*
X240284Y114300D03*
X240284Y119304D03*
X240284Y124308D03*
D32*
X218440Y114300D03*
D10*
X175370Y462280D03*
X157370Y462280D03*
X174100Y294640D03*
X156100Y294640D03*
X174100Y135890D03*
X156100Y135890D03*
D33*
X593090Y160020D03*
X593090Y185420D03*
X593090Y210820D03*
X593090Y236220D03*
X593090Y261620D03*
X593090Y287020D03*
X593090Y312420D03*
D34*
X178816Y596240D03*
X178816Y586740D03*
X178816Y577240D03*
X202184Y577240D03*
X202184Y586740D03*
X202184Y596240D03*
D10*
X205630Y556260D03*
X223630Y556260D03*
X157370Y556260D03*
X175370Y556260D03*
D12*
X223520Y595740D03*
X223520Y577740D03*
X157480Y595740D03*
X157480Y577740D03*
D35*
X447040Y802640D03*
X529590Y706120D03*
X445770Y746760D03*
X478790Y668020D03*
X469900Y668020D03*
X461010Y668020D03*
X469900Y676910D03*
X478790Y676910D03*
X461010Y676910D03*
X461010Y685800D03*
X478790Y685800D03*
X478790Y694690D03*
X469900Y694690D03*
X461010Y694690D03*
X461010Y703580D03*
X469900Y703580D03*
X478790Y703580D03*
X535940Y652780D03*
X563880Y624840D03*
X543560Y607060D03*
X400050Y607060D03*
X334010Y636270D03*
X334010Y646430D03*
X426720Y678180D03*
X402590Y685800D03*
X359410Y765810D03*
X406400Y711200D03*
X530860Y567690D03*
X466090Y567690D03*
X401320Y487680D03*
X401320Y478790D03*
X660400Y895350D03*
X660400Y869950D03*
X660400Y844550D03*
X558800Y844550D03*
X279400Y774700D03*
X227330Y844550D03*
X177800Y844550D03*
X381000Y844550D03*
X482600Y844550D03*
X609600Y844550D03*
X762000Y843280D03*
X93980Y793750D03*
X106680Y603250D03*
X106680Y582930D03*
X730250Y770890D03*
X50800Y139700D03*
X850900Y139700D03*
X835660Y826770D03*
X88900Y825500D03*
X350520Y354330D03*
X350520Y341630D03*
X774700Y774700D03*
X774700Y762000D03*
X774700Y749300D03*
X774700Y736600D03*
X774700Y723900D03*
X622300Y495300D03*
X622300Y482600D03*
X622300Y469900D03*
X622300Y457200D03*
X622300Y444500D03*
X622300Y431800D03*
X424180Y344170D03*
X505460Y161290D03*
X469900Y80010D03*
X519430Y83820D03*
X502920Y336550D03*
X213360Y444500D03*
X220980Y444500D03*
X220980Y436880D03*
X213360Y436880D03*
X214630Y276860D03*
X222250Y276860D03*
X214630Y269240D03*
X222250Y269240D03*
X214630Y118110D03*
X222250Y118110D03*
X214630Y110490D03*
X222250Y110490D03*
X162560Y441960D03*
X158750Y426720D03*
X163830Y394970D03*
X162560Y251460D03*
X109220Y125730D03*
X109220Y113030D03*
X109220Y100330D03*
X109220Y87630D03*
X325120Y100330D03*
X325120Y87630D03*
X325120Y74930D03*
X325120Y62230D03*
X604520Y100330D03*
X604520Y87630D03*
X604520Y74930D03*
X604520Y62230D03*
X116840Y331470D03*
X116840Y318770D03*
X116840Y306070D03*
X116840Y293370D03*
X233680Y166370D03*
X233680Y153670D03*
X234950Y327660D03*
X234950Y314960D03*
X236220Y496570D03*
X236220Y483870D03*
X274320Y530860D03*
X274320Y518160D03*
X157480Y102870D03*
X157480Y82550D03*
X166370Y621030D03*
X342900Y400050D03*
X356870Y400050D03*
X356870Y387350D03*
X546100Y772160D03*
X563880Y801370D03*
X425450Y802640D03*
X481330Y784860D03*
X542290Y739140D03*
X608330Y605790D03*
X608330Y615950D03*
X533400Y487680D03*
X533400Y478790D03*
X473710Y487680D03*
X473710Y478790D03*
X500380Y585470D03*
X500380Y594360D03*
X608330Y657860D03*
X608330Y666750D03*
X377190Y594360D03*
X340360Y425450D03*
X340360Y435610D03*
X340360Y445770D03*
X340360Y455930D03*
X340360Y466090D03*
X405130Y508000D03*
X405130Y518160D03*
X405130Y528320D03*
X405130Y538480D03*
X405130Y548640D03*
X457200Y478790D03*
X447040Y478790D03*
X435610Y478790D03*
X450850Y497840D03*
X436880Y497840D03*
X453390Y513080D03*
X438150Y513080D03*
X422910Y513080D03*
X422910Y525780D03*
X438150Y525780D03*
X453390Y525780D03*
X453390Y539750D03*
X438150Y539750D03*
X422910Y539750D03*
X377190Y585470D03*
X439420Y585470D03*
X439420Y594360D03*
X340360Y485140D03*
X340360Y494030D03*
X334010Y607060D03*
X334010Y617220D03*
X411480Y487680D03*
X411480Y478790D03*
X608330Y640080D03*
X566420Y589280D03*
X513080Y499110D03*
X496570Y499110D03*
X519430Y482600D03*
X499110Y482600D03*
X518160Y513080D03*
X500380Y513080D03*
X483870Y513080D03*
X483870Y525780D03*
X500380Y525780D03*
X518160Y525780D03*
X518160Y539750D03*
X500380Y539750D03*
X483870Y539750D03*
X316230Y744220D03*
X422910Y746760D03*
X665480Y707390D03*
X347980Y699770D03*
X356870Y699770D03*
X391160Y641350D03*
X382270Y641350D03*
X424180Y459740D03*
X438150Y459740D03*
X453390Y459740D03*
X424180Y445770D03*
X452120Y445770D03*
X452120Y431800D03*
X438150Y431800D03*
X424180Y431800D03*
X321310Y588010D03*
X382270Y659130D03*
X391160Y659130D03*
X462280Y786130D03*
X471170Y786130D03*
X303530Y718820D03*
X303530Y709930D03*
X631190Y647700D03*
X845820Y839470D03*
X845820Y574040D03*
X845820Y345440D03*
X80010Y162560D03*
X80010Y391160D03*
X80010Y657860D03*
X520700Y683260D03*
X529590Y683260D03*
X577850Y721360D03*
X490220Y459740D03*
X501650Y459740D03*
X514350Y459740D03*
X490220Y447040D03*
X514350Y447040D03*
X490220Y433070D03*
X501650Y433070D03*
X514350Y433070D03*
X544830Y459740D03*
X560070Y459740D03*
X579120Y459740D03*
X579120Y447040D03*
X579120Y435610D03*
X560070Y447040D03*
X544830Y447040D03*
X577850Y737870D03*
X254000Y735330D03*
X254000Y726440D03*
X325120Y553720D03*
X336550Y553720D03*
X478790Y134620D03*
X254000Y457200D03*
X266700Y457200D03*
X254000Y287020D03*
X262890Y128270D03*
X254000Y605790D03*
X307340Y485140D03*
X116840Y198120D03*
X294640Y149860D03*
X151130Y212090D03*
X143510Y698500D03*
X114300Y469900D03*
X713740Y711200D03*
X722630Y711200D03*
X326390Y533400D03*
X336550Y533400D03*
X152400Y359410D03*
X177800Y721360D03*
X143510Y533400D03*
X464820Y346710D03*
X464820Y356870D03*
X294640Y313690D03*
X293370Y487680D03*
X116840Y359410D03*
X128270Y495300D03*
X128270Y657860D03*
X337820Y287020D03*
X561340Y401320D03*
X581660Y401320D03*
X562610Y375920D03*
X523240Y133350D03*
X240030Y586740D03*
X562610Y325120D03*
X431800Y363220D03*
X361950Y248920D03*
X407670Y386080D03*
X501650Y346710D03*
X361950Y274320D03*
X407670Y355600D03*
X464820Y336550D03*
X363220Y96520D03*
X471170Y208280D03*
X440690Y153670D03*
X516890Y317500D03*
X194310Y745490D03*
X562610Y248920D03*
X340360Y224790D03*
X562610Y223520D03*
X340360Y198120D03*
X562610Y198120D03*
X340360Y172720D03*
X562610Y146050D03*
X340360Y146050D03*
X562610Y299720D03*
X316230Y469900D03*
X317500Y572770D03*
X562610Y274320D03*
X337820Y298450D03*
X240030Y458470D03*
X363220Y71120D03*
X562610Y71120D03*
X562610Y96520D03*
X562610Y172720D03*
X433070Y208280D03*
X509270Y208280D03*
X567690Y121920D03*
X234950Y298450D03*
X233680Y139700D03*
X166370Y568960D03*
X190500Y556260D03*
X190500Y614680D03*
M02*
