G04 EAGLE Gerber RS-274X export*
G75*
%MOMM*%
%FSLAX34Y34*%
%LPD*%
%INSoldermask Bottom*%
%IPPOS*%
%AMOC8*
5,1,8,0,0,1.08239X$1,22.5*%
G01*
%ADD10R,2.054000X1.854000*%
%ADD11R,1.054000X1.454000*%
%ADD12R,2.254000X1.454000*%
%ADD13R,2.704000X2.604000*%
%ADD14R,1.454000X1.054000*%
%ADD15C,6.604000*%
%ADD16C,2.032000*%
%ADD17C,1.562000*%
%ADD18R,4.104000X4.254000*%
%ADD19R,2.754000X3.254000*%
%ADD20R,1.204000X1.704000*%
%ADD21R,2.794000X2.159000*%
%ADD22R,1.494000X1.374000*%
%ADD23R,1.778000X0.863600*%
%ADD24R,0.863600X1.778000*%
%ADD25P,1.907171X8X112.500000*%
%ADD26C,1.016000*%


D10*
X755650Y751810D03*
X755650Y779810D03*
D11*
X718930Y726440D03*
X700930Y726440D03*
X740300Y726440D03*
X758300Y726440D03*
D10*
X154940Y764510D03*
X154940Y792510D03*
X182880Y764510D03*
X182880Y792510D03*
D12*
X212090Y763780D03*
X212090Y795780D03*
X243840Y763780D03*
X243840Y795780D03*
D13*
X608330Y729730D03*
X608330Y791730D03*
X662940Y729730D03*
X662940Y791730D03*
D10*
X389890Y732760D03*
X389890Y760760D03*
X419100Y732760D03*
X419100Y760760D03*
X449580Y732760D03*
X449580Y760760D03*
X480060Y732760D03*
X480060Y760760D03*
D11*
X325010Y685800D03*
X343010Y685800D03*
X631080Y662940D03*
X649080Y662940D03*
D14*
X363220Y728870D03*
X363220Y746870D03*
D13*
X285750Y729730D03*
X285750Y791730D03*
D10*
X703580Y751810D03*
X703580Y779810D03*
D15*
X50800Y50800D03*
X850900Y50800D03*
X825500Y908050D03*
X88900Y908050D03*
D16*
X774700Y908050D03*
X774700Y882650D03*
X139700Y908050D03*
X139700Y882650D03*
X749300Y908050D03*
X749300Y882650D03*
X723900Y908050D03*
X723900Y882650D03*
X698500Y908050D03*
X698500Y882650D03*
X673100Y908050D03*
X673100Y882650D03*
X647700Y908050D03*
X647700Y882650D03*
X622300Y908050D03*
X622300Y882650D03*
X596900Y908050D03*
X596900Y882650D03*
X571500Y908050D03*
X571500Y882650D03*
X546100Y908050D03*
X546100Y882650D03*
X520700Y908050D03*
X520700Y882650D03*
X495300Y908050D03*
X495300Y882650D03*
X469900Y908050D03*
X469900Y882650D03*
X444500Y908050D03*
X444500Y882650D03*
X419100Y908050D03*
X419100Y882650D03*
X393700Y908050D03*
X393700Y882650D03*
X368300Y908050D03*
X368300Y882650D03*
X342900Y908050D03*
X342900Y882650D03*
X317500Y908050D03*
X317500Y882650D03*
X292100Y908050D03*
X292100Y882650D03*
X266700Y908050D03*
X266700Y882650D03*
X241300Y908050D03*
X241300Y882650D03*
X215900Y908050D03*
X215900Y882650D03*
X190500Y908050D03*
X190500Y882650D03*
X165100Y908050D03*
X165100Y882650D03*
X774700Y857250D03*
X774700Y832231D03*
X139700Y857250D03*
X139700Y831850D03*
X749300Y857250D03*
X749300Y832231D03*
X723900Y857250D03*
X723900Y832231D03*
X698500Y857250D03*
X698500Y832231D03*
X673100Y857250D03*
X673100Y832231D03*
X647700Y857250D03*
X647700Y832231D03*
X622300Y857250D03*
X622300Y832231D03*
X596900Y857250D03*
X596900Y832231D03*
X571500Y857250D03*
X571500Y832231D03*
X546100Y857250D03*
X546100Y832231D03*
X520700Y857250D03*
X520700Y832231D03*
X495300Y857250D03*
X495300Y832231D03*
X469900Y857250D03*
X469900Y832231D03*
X444500Y857250D03*
X444500Y832231D03*
X419100Y857250D03*
X419100Y832231D03*
X393700Y857250D03*
X393700Y832231D03*
X368300Y857250D03*
X368300Y832231D03*
X342900Y857250D03*
X342900Y832231D03*
X317500Y857250D03*
X317500Y832231D03*
X292100Y857250D03*
X292100Y832231D03*
X266700Y857250D03*
X266700Y832231D03*
X241300Y857250D03*
X241300Y832231D03*
X215900Y857250D03*
X215900Y832231D03*
X190500Y857250D03*
X190500Y832231D03*
X165100Y857250D03*
X165100Y832231D03*
D17*
X50800Y723900D03*
X50800Y743966D03*
X50800Y457200D03*
X50800Y477266D03*
X50800Y228600D03*
X50800Y248666D03*
X876300Y279400D03*
X876300Y259334D03*
X876300Y508000D03*
X876300Y487934D03*
X876300Y774700D03*
X876300Y754634D03*
D18*
X431650Y631190D03*
X508150Y631190D03*
D19*
X511440Y730250D03*
X560440Y730250D03*
D14*
X303530Y685910D03*
X303530Y667910D03*
X364490Y667910D03*
X364490Y685910D03*
X648970Y684420D03*
X648970Y702420D03*
X589280Y684420D03*
X589280Y702420D03*
D20*
X628490Y702310D03*
X608490Y702310D03*
X324010Y641350D03*
X344010Y641350D03*
X324010Y664210D03*
X344010Y664210D03*
D21*
X542290Y426720D03*
X542290Y401320D03*
X542290Y375920D03*
X542290Y350520D03*
X542290Y325120D03*
X542290Y299720D03*
X542290Y274320D03*
X542290Y248920D03*
X542290Y223520D03*
X542290Y198120D03*
X542290Y172720D03*
X542290Y147320D03*
X542290Y121920D03*
X542290Y96520D03*
X542290Y71120D03*
X382270Y71120D03*
X382270Y96520D03*
X382270Y121920D03*
X382270Y147320D03*
X382270Y172720D03*
X382270Y198120D03*
X382270Y223520D03*
X382270Y248920D03*
X382270Y274320D03*
X382270Y299720D03*
X382270Y325120D03*
X382270Y350520D03*
X382270Y375920D03*
X382270Y401320D03*
X382270Y426720D03*
D22*
X358480Y797560D03*
X388280Y797560D03*
D23*
X155702Y680720D03*
X100838Y680720D03*
X155702Y668020D03*
X155702Y655320D03*
X100838Y668020D03*
X100838Y655320D03*
X155702Y642620D03*
X100838Y642620D03*
D14*
X127000Y698390D03*
X127000Y716390D03*
D23*
X154432Y515620D03*
X99568Y515620D03*
X154432Y502920D03*
X154432Y490220D03*
X99568Y502920D03*
X99568Y490220D03*
X154432Y477520D03*
X99568Y477520D03*
D14*
X125730Y532020D03*
X125730Y550020D03*
D24*
X135890Y361188D03*
X135890Y416052D03*
X123190Y361188D03*
X110490Y361188D03*
X123190Y416052D03*
X110490Y416052D03*
X97790Y361188D03*
X97790Y416052D03*
D11*
X152290Y389890D03*
X170290Y389890D03*
D24*
X135890Y199898D03*
X135890Y254762D03*
X123190Y199898D03*
X110490Y199898D03*
X123190Y254762D03*
X110490Y254762D03*
X97790Y199898D03*
X97790Y254762D03*
D11*
X152290Y228600D03*
X170290Y228600D03*
D23*
X304038Y534670D03*
X358902Y534670D03*
X304038Y547370D03*
X304038Y560070D03*
X358902Y547370D03*
X358902Y560070D03*
X304038Y572770D03*
X358902Y572770D03*
D14*
X325120Y518270D03*
X325120Y500270D03*
D25*
X593090Y160020D03*
X593090Y185420D03*
X593090Y210820D03*
X593090Y236220D03*
X593090Y261620D03*
X593090Y287020D03*
X593090Y312420D03*
D26*
X447040Y802640D03*
X529590Y706120D03*
X445770Y746760D03*
X478790Y668020D03*
X469900Y668020D03*
X461010Y668020D03*
X469900Y676910D03*
X478790Y676910D03*
X461010Y676910D03*
X461010Y685800D03*
X478790Y685800D03*
X478790Y694690D03*
X469900Y694690D03*
X461010Y694690D03*
X461010Y703580D03*
X469900Y703580D03*
X478790Y703580D03*
X535940Y652780D03*
X563880Y624840D03*
X543560Y607060D03*
X400050Y607060D03*
X334010Y636270D03*
X334010Y646430D03*
X426720Y678180D03*
X402590Y685800D03*
X359410Y765810D03*
X406400Y711200D03*
X530860Y567690D03*
X466090Y567690D03*
X401320Y487680D03*
X401320Y478790D03*
X660400Y895350D03*
X660400Y869950D03*
X660400Y844550D03*
X558800Y844550D03*
X279400Y774700D03*
X227330Y844550D03*
X177800Y844550D03*
X381000Y844550D03*
X482600Y844550D03*
X609600Y844550D03*
X762000Y843280D03*
X93980Y793750D03*
X106680Y603250D03*
X106680Y582930D03*
X730250Y770890D03*
X50800Y139700D03*
X850900Y139700D03*
X835660Y826770D03*
X88900Y825500D03*
X350520Y354330D03*
X350520Y341630D03*
X774700Y774700D03*
X774700Y762000D03*
X774700Y749300D03*
X774700Y736600D03*
X774700Y723900D03*
X622300Y495300D03*
X622300Y482600D03*
X622300Y469900D03*
X622300Y457200D03*
X622300Y444500D03*
X622300Y431800D03*
X424180Y344170D03*
X505460Y161290D03*
X469900Y80010D03*
X519430Y83820D03*
X502920Y336550D03*
X213360Y444500D03*
X220980Y444500D03*
X220980Y436880D03*
X213360Y436880D03*
X214630Y276860D03*
X222250Y276860D03*
X214630Y269240D03*
X222250Y269240D03*
X214630Y118110D03*
X222250Y118110D03*
X214630Y110490D03*
X222250Y110490D03*
X162560Y441960D03*
X158750Y426720D03*
X163830Y394970D03*
X162560Y251460D03*
X109220Y125730D03*
X109220Y113030D03*
X109220Y100330D03*
X109220Y87630D03*
X325120Y100330D03*
X325120Y87630D03*
X325120Y74930D03*
X325120Y62230D03*
X604520Y100330D03*
X604520Y87630D03*
X604520Y74930D03*
X604520Y62230D03*
X116840Y331470D03*
X116840Y318770D03*
X116840Y306070D03*
X116840Y293370D03*
X233680Y166370D03*
X233680Y153670D03*
X234950Y327660D03*
X234950Y314960D03*
X236220Y496570D03*
X236220Y483870D03*
X274320Y530860D03*
X274320Y518160D03*
X157480Y102870D03*
X157480Y82550D03*
X166370Y621030D03*
X342900Y400050D03*
X356870Y400050D03*
X356870Y387350D03*
X546100Y772160D03*
X563880Y801370D03*
X425450Y802640D03*
X481330Y784860D03*
X542290Y739140D03*
X608330Y605790D03*
X608330Y615950D03*
X533400Y487680D03*
X533400Y478790D03*
X473710Y487680D03*
X473710Y478790D03*
X500380Y585470D03*
X500380Y594360D03*
X608330Y657860D03*
X608330Y666750D03*
X377190Y594360D03*
X340360Y425450D03*
X340360Y435610D03*
X340360Y445770D03*
X340360Y455930D03*
X340360Y466090D03*
X405130Y508000D03*
X405130Y518160D03*
X405130Y528320D03*
X405130Y538480D03*
X405130Y548640D03*
X457200Y478790D03*
X447040Y478790D03*
X435610Y478790D03*
X450850Y497840D03*
X436880Y497840D03*
X453390Y513080D03*
X438150Y513080D03*
X422910Y513080D03*
X422910Y525780D03*
X438150Y525780D03*
X453390Y525780D03*
X453390Y539750D03*
X438150Y539750D03*
X422910Y539750D03*
X377190Y585470D03*
X439420Y585470D03*
X439420Y594360D03*
X340360Y485140D03*
X340360Y494030D03*
X334010Y607060D03*
X334010Y617220D03*
X411480Y487680D03*
X411480Y478790D03*
X608330Y640080D03*
X566420Y589280D03*
X513080Y499110D03*
X496570Y499110D03*
X519430Y482600D03*
X499110Y482600D03*
X518160Y513080D03*
X500380Y513080D03*
X483870Y513080D03*
X483870Y525780D03*
X500380Y525780D03*
X518160Y525780D03*
X518160Y539750D03*
X500380Y539750D03*
X483870Y539750D03*
X316230Y744220D03*
X422910Y746760D03*
X665480Y707390D03*
X347980Y699770D03*
X356870Y699770D03*
X391160Y641350D03*
X382270Y641350D03*
X424180Y459740D03*
X438150Y459740D03*
X453390Y459740D03*
X424180Y445770D03*
X452120Y445770D03*
X452120Y431800D03*
X438150Y431800D03*
X424180Y431800D03*
X321310Y588010D03*
X382270Y659130D03*
X391160Y659130D03*
X462280Y786130D03*
X471170Y786130D03*
X303530Y718820D03*
X303530Y709930D03*
X631190Y647700D03*
X845820Y839470D03*
X845820Y574040D03*
X845820Y345440D03*
X80010Y162560D03*
X80010Y391160D03*
X80010Y657860D03*
X520700Y683260D03*
X529590Y683260D03*
X577850Y721360D03*
X490220Y459740D03*
X501650Y459740D03*
X514350Y459740D03*
X490220Y447040D03*
X514350Y447040D03*
X490220Y433070D03*
X501650Y433070D03*
X514350Y433070D03*
X544830Y459740D03*
X560070Y459740D03*
X579120Y459740D03*
X579120Y447040D03*
X579120Y435610D03*
X560070Y447040D03*
X544830Y447040D03*
X577850Y737870D03*
X254000Y735330D03*
X254000Y726440D03*
X325120Y553720D03*
X336550Y553720D03*
X478790Y134620D03*
X254000Y457200D03*
X266700Y457200D03*
X254000Y287020D03*
X262890Y128270D03*
X254000Y605790D03*
X307340Y485140D03*
X116840Y198120D03*
X294640Y149860D03*
X151130Y212090D03*
X143510Y698500D03*
X114300Y469900D03*
X713740Y711200D03*
X722630Y711200D03*
X326390Y533400D03*
X336550Y533400D03*
X152400Y359410D03*
X177800Y721360D03*
X143510Y533400D03*
X464820Y346710D03*
X464820Y356870D03*
X294640Y313690D03*
X293370Y487680D03*
X116840Y359410D03*
X128270Y495300D03*
X128270Y657860D03*
X337820Y287020D03*
X561340Y401320D03*
X581660Y401320D03*
X562610Y375920D03*
X523240Y133350D03*
X240030Y586740D03*
X562610Y325120D03*
X431800Y363220D03*
X361950Y248920D03*
X407670Y386080D03*
X501650Y346710D03*
X361950Y274320D03*
X407670Y355600D03*
X464820Y336550D03*
X363220Y96520D03*
X471170Y208280D03*
X440690Y153670D03*
X516890Y317500D03*
X194310Y745490D03*
X562610Y248920D03*
X340360Y224790D03*
X562610Y223520D03*
X340360Y198120D03*
X562610Y198120D03*
X340360Y172720D03*
X562610Y146050D03*
X340360Y146050D03*
X562610Y299720D03*
X316230Y469900D03*
X317500Y572770D03*
X562610Y274320D03*
X337820Y298450D03*
X240030Y458470D03*
X363220Y71120D03*
X562610Y71120D03*
X562610Y96520D03*
X562610Y172720D03*
X433070Y208280D03*
X509270Y208280D03*
X567690Y121920D03*
X234950Y298450D03*
X233680Y139700D03*
X166370Y568960D03*
X190500Y556260D03*
X190500Y614680D03*
M02*
