M48
;GenerationSoftware,Autodesk,EAGLE,9.3.1*%
;CreationDate,2020-08-08T03:36:58Z*%
FMAT,2
ICI,OFF
METRIC,TZ,000.000
T6C0.254
T5C0.800
T4C1.000
T3C1.016
T2C1.067
T1C3.175
%
G90
M71
T1
X8890Y90805
X5080Y5080
X85090Y5080
X82550Y90805
T2
X59690Y83223
X77470Y90805
X77470Y88265
X13970Y90805
X13970Y88265
X74930Y90805
X74930Y88265
X72390Y90805
X72390Y88265
X69850Y90805
X69850Y88265
X67310Y90805
X67310Y88265
X64770Y90805
X64770Y88265
X62230Y90805
X62230Y88265
X59690Y90805
X59690Y88265
X57150Y90805
X57150Y88265
X54610Y90805
X54610Y88265
X52070Y90805
X52070Y88265
X49530Y90805
X49530Y88265
X46990Y90805
X46990Y88265
X44450Y90805
X44450Y88265
X41910Y90805
X41910Y88265
X39370Y90805
X39370Y88265
X36830Y90805
X36830Y88265
X34290Y90805
X34290Y88265
X31750Y90805
X31750Y88265
X29210Y90805
X29210Y88265
X26670Y90805
X26670Y88265
X24130Y90805
X24130Y88265
X21590Y90805
X21590Y88265
X19050Y90805
X19050Y88265
X16510Y90805
X16510Y88265
X77470Y85725
X77470Y83223
X13970Y85725
X13970Y83185
X74930Y85725
X74930Y83223
X72390Y85725
X72390Y83223
X69850Y85725
X69850Y83223
X67310Y85725
X67310Y83223
X64770Y85725
X64770Y83223
X62230Y85725
X62230Y83223
X59690Y85725
X57150Y85725
X57150Y83223
X54610Y85725
X54610Y83223
X52070Y85725
X52070Y83223
X49530Y85725
X49530Y83223
X46990Y85725
X46990Y83223
X44450Y85725
X44450Y83223
X41910Y85725
X41910Y83223
X39370Y85725
X39370Y83223
X36830Y85725
X36830Y83223
X34290Y85725
X34290Y83223
X31750Y85725
X31750Y83223
X29210Y85725
X29210Y83223
X26670Y85725
X26670Y83223
X24130Y85725
X24130Y83223
X21590Y85725
X21590Y83223
X19050Y85725
X16510Y85725
X16510Y83223
T3
X19050Y83223
T4
X59309Y31242
X59309Y16002
X59309Y18542
X59309Y21082
X59309Y23622
X59309Y26162
X59309Y28702
T5
X5080Y72390
X5080Y74397
X5080Y45720
X5080Y22860
X5080Y24867
X87630Y27940
X87630Y25933
X87630Y50800
X87630Y48793
X87630Y77470
X87630Y75463
X5080Y47727
T6
X60833Y65786
X60833Y66675
X37719Y59436
X34036Y42545
X34036Y43561
X34036Y44577
X34036Y45593
X34036Y46609
X40513Y50800
X40513Y51816
X40513Y52832
X40513Y53848
X40513Y54864
X45720Y47879
X44704Y47879
X43561Y47879
X45085Y49784
X43688Y49784
X45339Y51308
X43815Y51308
X42291Y51308
X42291Y52578
X43815Y52578
X45339Y52578
X45339Y53975
X43815Y53975
X42291Y53975
X37719Y58547
X43942Y58547
X43942Y59436
X34036Y48514
X34036Y49403
X33401Y60706
X33401Y61722
X41148Y48768
X41148Y47879
X60833Y64008
X56642Y58928
X51308Y49911
X49657Y49911
X51943Y48260
X49911Y48260
X51816Y51308
X50038Y51308
X48387Y51308
X48387Y52578
X50038Y52578
X51816Y52578
X51816Y53975
X50038Y53975
X48387Y53975
X31623Y74422
X42291Y74676
X66548Y70739
X34798Y69977
X35687Y69977
X39116Y64135
X38227Y64135
X42418Y45974
X43815Y45974
X45339Y45974
X42418Y44577
X45212Y44577
X45212Y43180
X43815Y43180
X42418Y43180
X32131Y58801
X38227Y65913
X39116Y65913
X46228Y78613
X47117Y78613
X30353Y71882
X30353Y70993
X63119Y64770
X84582Y83947
X84582Y57404
X84582Y34544
X8001Y16256
X8001Y39116
X8001Y65786
X52070Y68326
X52959Y68326
X57785Y72136
X49022Y45974
X50165Y45974
X51435Y45974
X49022Y44704
X77470Y76200
X49022Y43307
X50165Y43307
X51435Y43307
X54483Y45974
X56007Y45974
X57912Y45974
X57912Y44704
X57912Y43561
X56007Y44704
X54483Y44704
X57785Y73787
X25400Y73533
X25400Y72644
X32512Y55372
X33655Y55372
X47879Y13462
X25400Y45720
X26670Y45720
X25400Y28702
X26289Y12827
X25400Y60579
X30734Y48514
X11684Y19812
X29464Y14986
X15113Y21209
X14351Y69850
X11430Y46990
X71374Y71120
X72263Y71120
X32639Y53340
X33655Y53340
X15240Y35941
X17780Y72136
X14351Y53340
X46482Y34671
X46482Y35687
X29464Y31369
X29337Y48768
X11684Y35941
X12827Y49530
X12827Y65786
X33782Y28702
X56134Y40132
X58166Y40132
X56261Y37592
X52324Y13335
X24003Y58674
X56261Y32512
X43180Y36322
X36195Y24892
X40767Y38608
X50165Y34671
X36195Y27432
X40767Y35560
X46482Y33655
X36322Y9652
X47117Y20828
X44069Y15367
X51689Y31750
X19431Y74549
X56261Y24892
X34036Y22479
X56261Y22352
X34036Y19812
X56261Y19812
X34036Y17272
X56261Y14605
X34036Y14605
X56261Y29972
X31623Y46990
X31750Y57277
X56261Y27432
X33782Y29845
X24003Y45847
X36322Y7112
X56261Y7112
X56261Y9652
X56261Y17272
X43307Y20828
X50927Y20828
X56769Y12192
X23495Y29845
X23368Y13970
X16637Y56896
X19050Y55626
X19050Y61468
X44704Y80264
X52959Y70612
X44577Y74676
X47879Y66802
X46990Y66802
X46101Y66802
X46990Y67691
X47879Y67691
X46101Y67691
X46101Y68580
X47879Y68580
X47879Y69469
X46990Y69469
X46101Y69469
X46101Y70358
X46990Y70358
X47879Y70358
X53594Y65278
X56388Y62484
X54356Y60706
X40005Y60706
X33401Y63627
X33401Y64643
X42672Y67818
X40259Y68580
X35941Y76581
X40640Y71120
X53086Y56769
X46609Y56769
X40132Y48768
X40132Y47879
X66040Y89535
X66040Y86995
X66040Y84455
X55880Y84455
X27940Y77470
X22733Y84455
X17780Y84455
X38100Y84455
X48260Y84455
X60960Y84455
X76200Y84328
X9398Y79375
X10668Y60325
X10668Y58293
X73025Y77089
X5080Y13970
X85090Y13970
X83566Y82677
X8890Y82550
X35052Y35433
X35052Y34163
X77470Y77470
X77470Y74930
X77470Y73660
X77470Y72390
X62230Y49530
X62230Y48260
X62230Y46990
X62230Y45720
X62230Y44450
X62230Y43180
X42418Y34417
X50546Y16129
X46990Y8001
X51943Y8382
X50292Y33655
X21336Y44450
X22098Y44450
X22098Y43688
X21336Y43688
X21463Y27686
X22225Y27686
X51435Y44704
X21463Y26924
X22225Y26924
X21463Y11811
X22225Y11811
X21463Y11049
X22225Y11049
X16256Y44196
X15875Y42672
X16383Y39497
X16256Y25146
X10922Y12573
X10922Y11303
X10922Y10033
X10922Y8763
X32512Y10033
X32512Y8763
X32512Y7493
X32512Y6223
X60452Y10033
X60452Y8763
X60452Y7493
X60452Y6223
X11684Y33147
X11684Y31877
X11684Y30607
X11684Y29337
X23368Y16637
X23368Y15367
X23495Y32766
X23495Y31496
X23622Y49657
X23622Y48387
X27432Y53086
X27432Y51816
X15748Y10287
X15748Y8255
X16637Y62103
X34290Y40005
X35687Y40005
X35687Y38735
X54610Y77216
X56388Y80137
X42545Y80264
X48133Y78486
X54229Y73914
X60833Y60579
X60833Y61595
X53340Y48768
X53340Y47879
X47371Y48768
X47371Y47879
X50038Y58547
X50038Y59436
M30